{
  "asset": {
    "generator": "Khronos glTF Blender I/O v1.7.33",
    "version": "2.0"
  },
  "scene": 0,
  "scenes": [
    {
      "name": "Scene",
      "nodes": [
        0
      ]
    }
  ],
  "nodes": [
    {
      "mesh": 0,
      "name": "Cube.033",
      "rotation": [
        0.1000707596540451,
        -0.9468088746070862,
        0.2783147692680359,
        -0.12680569291114807
      ],
      "scale": [
        1.260288953781128,
        1.2602890729904175,
        1.260288953781128
      ],
      "translation": [
        -1.606108546257019,
        -1.0288143157958984,
        -0.5238115191459656
      ]
    }
  ],
  "materials": [
    {
      "doubleSided": true,
      "name": "pickle",
      "pbrMetallicRoughness": {
        "baseColorFactor": [
          0.11228488385677338,
          0.2882969081401825,
          0.005893293768167496,
          1
        ],
        "metallicFactor": 0,
        "roughnessFactor": 0.800000011920929
      },
      "emissiveFactor": [
        0,
        0,
        0
      ],
      "alphaMode": "OPAQUE"
    },
    {
      "doubleSided": true,
      "name": "carrot",
      "pbrMetallicRoughness": {
        "baseColorFactor": [
          1,
          0.18280629813671112,
          0.01621965318918228,
          1
        ],
        "metallicFactor": 0,
        "roughnessFactor": 0.30000001192092896
      },
      "emissiveFactor": [
        0,
        0,
        0
      ],
      "alphaMode": "OPAQUE"
    }
  ],
  "meshes": [
    {
      "name": "Cube.041",
      "primitives": [
        {
          "attributes": {
            "POSITION": 0,
            "NORMAL": 1,
            "TEXCOORD_0": 2
          },
          "indices": 3,
          "material": 0,
          "mode": 4
        },
        {
          "attributes": {
            "POSITION": 4,
            "NORMAL": 5,
            "TEXCOORD_0": 6
          },
          "indices": 7,
          "material": 1,
          "mode": 4
        }
      ]
    }
  ],
  "accessors": [
    {
      "bufferView": 0,
      "componentType": 5126,
      "count": 16476,
      "max": [
        2.870805501937866,
        4.674800872802734,
        1.2874987125396729
      ],
      "min": [
        -1.3276761770248413,
        2.016958236694336,
        -2.273063898086548
      ],
      "type": "VEC3",
      "byteOffset": 0
    },
    {
      "bufferView": 1,
      "componentType": 5126,
      "count": 16476,
      "type": "VEC3",
      "byteOffset": 0
    },
    {
      "bufferView": 2,
      "componentType": 5126,
      "count": 16476,
      "type": "VEC2",
      "byteOffset": 0
    },
    {
      "bufferView": 3,
      "componentType": 5123,
      "count": 89856,
      "type": "SCALAR",
      "byteOffset": 0
    },
    {
      "bufferView": 4,
      "componentType": 5126,
      "count": 14836,
      "max": [
        0.8254998326301575,
        2.5700607299804688,
        0.825499951839447
      ],
      "min": [
        -4.1531877517700195,
        -3.171700954437256,
        -1.3896232843399048
      ],
      "type": "VEC3",
      "byteOffset": 0
    },
    {
      "bufferView": 5,
      "componentType": 5126,
      "count": 14836,
      "type": "VEC3",
      "byteOffset": 0
    },
    {
      "bufferView": 6,
      "componentType": 5126,
      "count": 14836,
      "type": "VEC2",
      "byteOffset": 0
    },
    {
      "bufferView": 7,
      "componentType": 5123,
      "count": 80640,
      "type": "SCALAR",
      "byteOffset": 0
    }
  ],
  "bufferViews": [
    {
      "buffer": 0,
      "byteLength": 197712,
      "byteOffset": 0,
      "byteStride": 12,
      "target": 34962
    },
    {
      "buffer": 0,
      "byteLength": 197712,
      "byteOffset": 197712,
      "byteStride": 12,
      "target": 34962
    },
    {
      "buffer": 0,
      "byteLength": 131808,
      "byteOffset": 395424,
      "byteStride": 8,
      "target": 34962
    },
    {
      "buffer": 0,
      "byteLength": 179712,
      "byteOffset": 527232,
      "target": 34963
    },
    {
      "buffer": 0,
      "byteLength": 178032,
      "byteOffset": 706944,
      "byteStride": 12,
      "target": 34962
    },
    {
      "buffer": 0,
      "byteLength": 178032,
      "byteOffset": 884976,
      "byteStride": 12,
      "target": 34962
    },
    {
      "buffer": 0,
      "byteLength": 118688,
      "byteOffset": 1063008,
      "byteStride": 8,
      "target": 34962
    },
    {
      "buffer": 0,
      "byteLength": 161280,
      "byteOffset": 1181696,
      "target": 34963
    }
  ],
  "buffers": [
    {
      "name": "carrot",
      "byteLength": 1342976,
      "uri": "data:application/octet-stream;base64,"
    }
  ]
}
