{
  "asset": {
    "generator": "Khronos glTF Blender I/O v1.7.33",
    "version": "2.0"
  },
  "scene": 0,
  "scenes": [
    {
      "name": "Scene",
      "nodes": [
        0
      ]
    }
  ],
  "nodes": [
    {
      "mesh": 0,
      "name": "Cube.030",
      "scale": [
        -2.210010051727295,
        3.1526737213134766,
        2.2100093364715576
      ],
      "translation": [
        0.7414402365684509,
        -0.9595108032226562,
        0
      ],
      "rotation": [
        0,
        0,
        0,
        1
      ]
    }
  ],
  "materials": [
    {
      "doubleSided": true,
      "name": "glow white",
      "pbrMetallicRoughness": {
        "baseColorFactor": [
          0.6038163900375366,
          0.6038163900375366,
          0.6038163900375366,
          1
        ],
        "metallicFactor": 0,
        "roughnessFactor": 0
      },
      "emissiveFactor": [
        0,
        0,
        0
      ],
      "alphaMode": "OPAQUE"
    },
    {
      "doubleSided": true,
      "name": "tutup gelas",
      "pbrMetallicRoughness": {
        "baseColorFactor": [
          0.018848750740289688,
          0.006362828891724348,
          0.005073324777185917,
          1
        ],
        "metallicFactor": 0,
        "roughnessFactor": 0.2261904776096344
      },
      "emissiveFactor": [
        0,
        0,
        0
      ],
      "alphaMode": "OPAQUE"
    },
    {
      "doubleSided": true,
      "name": "meat",
      "pbrMetallicRoughness": {
        "baseColorFactor": [
          0.04586367309093475,
          0.013442637398838997,
          0.005602320656180382,
          1
        ],
        "metallicFactor": 0,
        "roughnessFactor": 0.7166666984558105
      },
      "emissiveFactor": [
        0,
        0,
        0
      ],
      "alphaMode": "OPAQUE"
    }
  ],
  "meshes": [
    {
      "name": "Cube.025",
      "primitives": [
        {
          "attributes": {
            "POSITION": 0,
            "NORMAL": 1,
            "TEXCOORD_0": 2
          },
          "indices": 3,
          "material": 0,
          "mode": 4
        },
        {
          "attributes": {
            "POSITION": 4,
            "NORMAL": 5,
            "TEXCOORD_0": 6
          },
          "indices": 7,
          "material": 1,
          "mode": 4
        },
        {
          "attributes": {
            "POSITION": 8,
            "NORMAL": 9,
            "TEXCOORD_0": 10
          },
          "indices": 11,
          "material": 2,
          "mode": 4
        }
      ]
    }
  ],
  "accessors": [
    {
      "bufferView": 0,
      "componentType": 5126,
      "count": 6258,
      "max": [
        1.2755882740020752,
        1.1299580335617065,
        1.275077223777771
      ],
      "min": [
        -1.2756537199020386,
        -1.2030470371246338,
        -1.2761647701263428
      ],
      "type": "VEC3",
      "byteOffset": 0
    },
    {
      "bufferView": 1,
      "componentType": 5126,
      "count": 6258,
      "type": "VEC3",
      "byteOffset": 0
    },
    {
      "bufferView": 2,
      "componentType": 5126,
      "count": 6258,
      "type": "VEC2",
      "byteOffset": 0
    },
    {
      "bufferView": 3,
      "componentType": 5123,
      "count": 34560,
      "type": "SCALAR",
      "byteOffset": 0
    },
    {
      "bufferView": 4,
      "componentType": 5126,
      "count": 9994,
      "max": [
        1.3707265853881836,
        1.6049578189849854,
        1.3702155351638794
      ],
      "min": [
        -1.370792031288147,
        0.9720640182495117,
        -1.3713030815124512
      ],
      "type": "VEC3",
      "byteOffset": 0
    },
    {
      "bufferView": 5,
      "componentType": 5126,
      "count": 9994,
      "type": "VEC3",
      "byteOffset": 0
    },
    {
      "bufferView": 6,
      "componentType": 5126,
      "count": 9994,
      "type": "VEC2",
      "byteOffset": 0
    },
    {
      "bufferView": 7,
      "componentType": 5123,
      "count": 56064,
      "type": "SCALAR",
      "byteOffset": 0
    },
    {
      "bufferView": 8,
      "componentType": 5126,
      "count": 2745,
      "max": [
        1.3182964324951172,
        0.5215907692909241,
        1.317792534828186
      ],
      "min": [
        -1.3183609247207642,
        -0.5111003518104553,
        -1.3188648223876953
      ],
      "type": "VEC3",
      "byteOffset": 0
    },
    {
      "bufferView": 9,
      "componentType": 5126,
      "count": 2745,
      "type": "VEC3",
      "byteOffset": 0
    },
    {
      "bufferView": 10,
      "componentType": 5126,
      "count": 2745,
      "type": "VEC2",
      "byteOffset": 0
    },
    {
      "bufferView": 11,
      "componentType": 5123,
      "count": 15360,
      "type": "SCALAR",
      "byteOffset": 0
    }
  ],
  "bufferViews": [
    {
      "buffer": 0,
      "byteLength": 75096,
      "byteOffset": 0,
      "byteStride": 12,
      "target": 34962
    },
    {
      "buffer": 0,
      "byteLength": 75096,
      "byteOffset": 75096,
      "byteStride": 12,
      "target": 34962
    },
    {
      "buffer": 0,
      "byteLength": 50064,
      "byteOffset": 150192,
      "byteStride": 8,
      "target": 34962
    },
    {
      "buffer": 0,
      "byteLength": 69120,
      "byteOffset": 200256,
      "target": 34963
    },
    {
      "buffer": 0,
      "byteLength": 119928,
      "byteOffset": 269376,
      "byteStride": 12,
      "target": 34962
    },
    {
      "buffer": 0,
      "byteLength": 119928,
      "byteOffset": 389304,
      "byteStride": 12,
      "target": 34962
    },
    {
      "buffer": 0,
      "byteLength": 79952,
      "byteOffset": 509232,
      "byteStride": 8,
      "target": 34962
    },
    {
      "buffer": 0,
      "byteLength": 112128,
      "byteOffset": 589184,
      "target": 34963
    },
    {
      "buffer": 0,
      "byteLength": 32940,
      "byteOffset": 701312,
      "byteStride": 12,
      "target": 34962
    },
    {
      "buffer": 0,
      "byteLength": 32940,
      "byteOffset": 734256,
      "byteStride": 12,
      "target": 34962
    },
    {
      "buffer": 0,
      "byteLength": 21960,
      "byteOffset": 767200,
      "byteStride": 8,
      "target": 34962
    },
    {
      "buffer": 0,
      "byteLength": 30720,
      "byteOffset": 789160,
      "target": 34963
    }
  ],
  "buffers": [
    {
      "name": "coffeecup",
      "byteLength": 819880,
      "uri": "data:application/octet-stream;base64,"
    }
  ]
}
