{
  "asset": {
    "generator": "Khronos glTF Blender I/O v1.7.33",
    "version": "2.0"
  },
  "scene": 0,
  "scenes": [
    {
      "name": "Scene",
      "nodes": [
        0
      ]
    }
  ],
  "nodes": [
    {
      "mesh": 0,
      "name": "Cylinder.002",
      "rotation": [
        0,
        0,
        0.31225770711898804,
        0.9499975442886353
      ],
      "scale": [
        1.6048842668533325,
        1.6048842668533325,
        1.6048842668533325
      ],
      "translation": [
        -1.4877212047576904,
        -1.0476998090744019,
        0
      ]
    }
  ],
  "materials": [
    {
      "doubleSided": true,
      "name": "eggplant green",
      "pbrMetallicRoughness": {
        "baseColorFactor": [
          0.11228488385677338,
          0.2882969081401825,
          0.005893293768167496,
          1
        ],
        "metallicFactor": 0,
        "roughnessFactor": 0.30000001192092896
      },
      "emissiveFactor": [
        0,
        0,
        0
      ],
      "alphaMode": "OPAQUE"
    },
    {
      "doubleSided": true,
      "name": "eggplant",
      "pbrMetallicRoughness": {
        "baseColorFactor": [
          0.06804819405078888,
          0.02371848374605179,
          0.36723774671554565,
          1
        ],
        "metallicFactor": 0.1607142835855484,
        "roughnessFactor": 0.16607144474983215
      },
      "emissiveFactor": [
        0,
        0,
        0
      ],
      "alphaMode": "OPAQUE"
    }
  ],
  "meshes": [
    {
      "name": "Cylinder.001",
      "primitives": [
        {
          "attributes": {
            "POSITION": 0,
            "NORMAL": 1,
            "TEXCOORD_0": 2
          },
          "indices": 3,
          "material": 0,
          "mode": 4
        },
        {
          "attributes": {
            "POSITION": 4,
            "NORMAL": 5,
            "TEXCOORD_0": 6
          },
          "indices": 7,
          "material": 1,
          "mode": 4
        }
      ]
    }
  ],
  "accessors": [
    {
      "bufferView": 0,
      "componentType": 5126,
      "count": 7203,
      "max": [
        0.790881872177124,
        3.8302347660064697,
        0.886064887046814
      ],
      "min": [
        -0.9797488451004028,
        0.9408633708953857,
        -0.886064887046814
      ],
      "type": "VEC3",
      "byteOffset": 0
    },
    {
      "bufferView": 1,
      "componentType": 5126,
      "count": 7203,
      "type": "VEC3",
      "byteOffset": 0
    },
    {
      "bufferView": 2,
      "componentType": 5126,
      "count": 7203,
      "type": "VEC2",
      "byteOffset": 0
    },
    {
      "bufferView": 3,
      "componentType": 5123,
      "count": 40320,
      "type": "SCALAR",
      "byteOffset": 0
    },
    {
      "bufferView": 4,
      "componentType": 5126,
      "count": 6567,
      "max": [
        2.905092477798462,
        1.3727447986602783,
        1.1882731914520264
      ],
      "min": [
        -0.9365841150283813,
        -3.680068016052246,
        -1.188273310661316
      ],
      "type": "VEC3",
      "byteOffset": 0
    },
    {
      "bufferView": 5,
      "componentType": 5126,
      "count": 6567,
      "type": "VEC3",
      "byteOffset": 0
    },
    {
      "bufferView": 6,
      "componentType": 5126,
      "count": 6567,
      "type": "VEC2",
      "byteOffset": 0
    },
    {
      "bufferView": 7,
      "componentType": 5123,
      "count": 35712,
      "type": "SCALAR",
      "byteOffset": 0
    }
  ],
  "bufferViews": [
    {
      "buffer": 0,
      "byteLength": 86436,
      "byteOffset": 0,
      "byteStride": 12,
      "target": 34962
    },
    {
      "buffer": 0,
      "byteLength": 86436,
      "byteOffset": 86440,
      "byteStride": 12,
      "target": 34962
    },
    {
      "buffer": 0,
      "byteLength": 57624,
      "byteOffset": 172880,
      "byteStride": 8,
      "target": 34962
    },
    {
      "buffer": 0,
      "byteLength": 80640,
      "byteOffset": 230504,
      "target": 34963
    },
    {
      "buffer": 0,
      "byteLength": 78804,
      "byteOffset": 311144,
      "byteStride": 12,
      "target": 34962
    },
    {
      "buffer": 0,
      "byteLength": 78804,
      "byteOffset": 389952,
      "byteStride": 12,
      "target": 34962
    },
    {
      "buffer": 0,
      "byteLength": 52536,
      "byteOffset": 468760,
      "byteStride": 8,
      "target": 34962
    },
    {
      "buffer": 0,
      "byteLength": 71424,
      "byteOffset": 521296,
      "target": 34963
    }
  ],
  "buffers": [
    {
      "name": "eggplant",
      "byteLength": 592720,
      "uri": "data:application/octet-stream;base64,"
    }
  ]
}
