{
  "asset": {
    "generator": "Khronos glTF Blender I/O v1.7.33",
    "version": "2.0"
  },
  "scene": 0,
  "scenes": [
    {
      "name": "Scene",
      "nodes": [
        0
      ]
    }
  ],
  "nodes": [
    {
      "mesh": 0,
      "name": "Cube.035",
      "rotation": [
        0.28926196694374084,
        -0.017879588529467583,
        0.33278509974479675,
        0.8973639011383057
      ],
      "scale": [
        3.010915517807007,
        3.0109148025512695,
        3.0109148025512695
      ],
      "translation": [
        0.3779888153076172,
        -0.9885826110839844,
        0
      ]
    }
  ],
  "materials": [
    {
      "doubleSided": true,
      "name": "chocolate",
      "pbrMetallicRoughness": {
        "baseColorFactor": [
          0.21096239984035492,
          0.051820870488882065,
          0.00669314106926322,
          1
        ],
        "metallicFactor": 0,
        "roughnessFactor": 0.1369047611951828
      },
      "emissiveFactor": [
        0,
        0,
        0
      ],
      "alphaMode": "OPAQUE"
    },
    {
      "doubleSided": true,
      "name": "glow white",
      "pbrMetallicRoughness": {
        "baseColorFactor": [
          0.6038163900375366,
          0.6038163900375366,
          0.6038163900375366,
          1
        ],
        "metallicFactor": 0,
        "roughnessFactor": 0
      },
      "emissiveFactor": [
        0,
        0,
        0
      ],
      "alphaMode": "OPAQUE"
    },
    {
      "doubleSided": true,
      "name": "tomato skin",
      "pbrMetallicRoughness": {
        "baseColorFactor": [
          0.43854451179504395,
          0.01649928092956543,
          0.01649928092956543,
          1
        ],
        "metallicFactor": 0,
        "roughnessFactor": 0.21666666865348816
      },
      "emissiveFactor": [
        0,
        0,
        0
      ],
      "alphaMode": "OPAQUE"
    },
    {
      "doubleSided": true,
      "name": "daging",
      "pbrMetallicRoughness": {
        "baseColorFactor": [
          1,
          0.07561007887125015,
          0.04674424231052399,
          1
        ],
        "metallicFactor": 0,
        "roughnessFactor": 0.30000001192092896
      },
      "emissiveFactor": [
        0,
        0,
        0
      ],
      "alphaMode": "OPAQUE"
    }
  ],
  "meshes": [
    {
      "name": "Cube.043",
      "primitives": [
        {
          "attributes": {
            "POSITION": 0,
            "NORMAL": 1,
            "TEXCOORD_0": 2
          },
          "indices": 3,
          "material": 0,
          "mode": 4
        },
        {
          "attributes": {
            "POSITION": 4,
            "NORMAL": 5,
            "TEXCOORD_0": 6
          },
          "indices": 7,
          "material": 1,
          "mode": 4
        },
        {
          "attributes": {
            "POSITION": 8,
            "NORMAL": 9,
            "TEXCOORD_0": 10
          },
          "indices": 11,
          "material": 2,
          "mode": 4
        },
        {
          "attributes": {
            "POSITION": 12,
            "NORMAL": 13,
            "TEXCOORD_0": 14
          },
          "indices": 15,
          "material": 3,
          "mode": 4
        }
      ]
    }
  ],
  "accessors": [
    {
      "bufferView": 0,
      "componentType": 5126,
      "count": 2717,
      "max": [
        1.0367710590362549,
        1.2499587535858154,
        1.0367710590362549
      ],
      "min": [
        -1.0367710590362549,
        -1.1117711067199707,
        -1.0367710590362549
      ],
      "type": "VEC3",
      "byteOffset": 0
    },
    {
      "bufferView": 1,
      "componentType": 5126,
      "count": 2717,
      "type": "VEC3",
      "byteOffset": 0
    },
    {
      "bufferView": 2,
      "componentType": 5126,
      "count": 2717,
      "type": "VEC2",
      "byteOffset": 0
    },
    {
      "bufferView": 3,
      "componentType": 5123,
      "count": 15360,
      "type": "SCALAR",
      "byteOffset": 0
    },
    {
      "bufferView": 4,
      "componentType": 5126,
      "count": 3149,
      "max": [
        0.2529551684856415,
        1.3906028270721436,
        0.14685538411140442
      ],
      "min": [
        -0.2529551684856415,
        -1.8006774187088013,
        -0.24026253819465637
      ],
      "type": "VEC3",
      "byteOffset": 0
    },
    {
      "bufferView": 5,
      "componentType": 5126,
      "count": 3149,
      "type": "VEC3",
      "byteOffset": 0
    },
    {
      "bufferView": 6,
      "componentType": 5126,
      "count": 3149,
      "type": "VEC2",
      "byteOffset": 0
    },
    {
      "bufferView": 7,
      "componentType": 5123,
      "count": 17280,
      "type": "SCALAR",
      "byteOffset": 0
    },
    {
      "bufferView": 8,
      "componentType": 5126,
      "count": 353,
      "max": [
        0.15339113771915436,
        1.3876025676727295,
        0.09899476915597916
      ],
      "min": [
        -0.1380055993795395,
        1.3760100603103638,
        -0.1924019306898117
      ],
      "type": "VEC3",
      "byteOffset": 0
    },
    {
      "bufferView": 9,
      "componentType": 5126,
      "count": 353,
      "type": "VEC3",
      "byteOffset": 0
    },
    {
      "bufferView": 10,
      "componentType": 5126,
      "count": 353,
      "type": "VEC2",
      "byteOffset": 0
    },
    {
      "bufferView": 11,
      "componentType": 5123,
      "count": 1920,
      "type": "SCALAR",
      "byteOffset": 0
    },
    {
      "bufferView": 12,
      "componentType": 5126,
      "count": 1449,
      "max": [
        0.7409769296646118,
        1.3127424716949463,
        0.7409769296646118
      ],
      "min": [
        -0.7409769296646118,
        1.178523302078247,
        -0.7409769296646118
      ],
      "type": "VEC3",
      "byteOffset": 0
    },
    {
      "bufferView": 13,
      "componentType": 5126,
      "count": 1449,
      "type": "VEC3",
      "byteOffset": 0
    },
    {
      "bufferView": 14,
      "componentType": 5126,
      "count": 1449,
      "type": "VEC2",
      "byteOffset": 0
    },
    {
      "bufferView": 15,
      "componentType": 5123,
      "count": 7680,
      "type": "SCALAR",
      "byteOffset": 0
    }
  ],
  "bufferViews": [
    {
      "buffer": 0,
      "byteLength": 32604,
      "byteOffset": 0,
      "byteStride": 12,
      "target": 34962
    },
    {
      "buffer": 0,
      "byteLength": 32604,
      "byteOffset": 32608,
      "byteStride": 12,
      "target": 34962
    },
    {
      "buffer": 0,
      "byteLength": 21736,
      "byteOffset": 65216,
      "byteStride": 8,
      "target": 34962
    },
    {
      "buffer": 0,
      "byteLength": 30720,
      "byteOffset": 86952,
      "target": 34963
    },
    {
      "buffer": 0,
      "byteLength": 37788,
      "byteOffset": 117672,
      "byteStride": 12,
      "target": 34962
    },
    {
      "buffer": 0,
      "byteLength": 37788,
      "byteOffset": 155464,
      "byteStride": 12,
      "target": 34962
    },
    {
      "buffer": 0,
      "byteLength": 25192,
      "byteOffset": 193256,
      "byteStride": 8,
      "target": 34962
    },
    {
      "buffer": 0,
      "byteLength": 34560,
      "byteOffset": 218448,
      "target": 34963
    },
    {
      "buffer": 0,
      "byteLength": 4236,
      "byteOffset": 253008,
      "byteStride": 12,
      "target": 34962
    },
    {
      "buffer": 0,
      "byteLength": 4236,
      "byteOffset": 257248,
      "byteStride": 12,
      "target": 34962
    },
    {
      "buffer": 0,
      "byteLength": 2824,
      "byteOffset": 261488,
      "byteStride": 8,
      "target": 34962
    },
    {
      "buffer": 0,
      "byteLength": 3840,
      "byteOffset": 264312,
      "target": 34963
    },
    {
      "buffer": 0,
      "byteLength": 17388,
      "byteOffset": 268152,
      "byteStride": 12,
      "target": 34962
    },
    {
      "buffer": 0,
      "byteLength": 17388,
      "byteOffset": 285544,
      "byteStride": 12,
      "target": 34962
    },
    {
      "buffer": 0,
      "byteLength": 11592,
      "byteOffset": 302936,
      "byteStride": 8,
      "target": 34962
    },
    {
      "buffer": 0,
      "byteLength": 15360,
      "byteOffset": 314528,
      "target": 34963
    }
  ],
  "buffers": [
    {
      "name": "meat",
      "byteLength": 329888,
      "uri": "data:application/octet-stream;base64,"
    }
  ]
}
