{
  "asset": {
    "generator": "Khronos glTF Blender I/O v1.7.33",
    "version": "2.0"
  },
  "scene": 0,
  "scenes": [
    {
      "name": "Scene",
      "nodes": [
        0
      ]
    }
  ],
  "nodes": [
    {
      "mesh": 0,
      "name": "Cube.004",
      "scale": [
        3.214357614517212,
        0.43530502915382385,
        4.110506534576416
      ],
      "translation": [
        0.29308560490608215,
        -0.757140040397644,
        0
      ],
      "rotation": [
        0,
        0,
        0,
        1
      ]
    }
  ],
  "materials": [
    {
      "doubleSided": true,
      "name": "bun.001",
      "pbrMetallicRoughness": {
        "baseColorFactor": [
          0.6500057578086853,
          0.13566957414150238,
          0.05614715442061424,
          1
        ],
        "metallicFactor": 0,
        "roughnessFactor": 0.30000001192092896
      },
      "emissiveFactor": [
        0,
        0,
        0
      ],
      "alphaMode": "OPAQUE"
    },
    {
      "doubleSided": true,
      "name": "cheese",
      "pbrMetallicRoughness": {
        "baseColorFactor": [
          1,
          0.32869014143943787,
          0.00005506050365511328,
          1
        ],
        "metallicFactor": 0,
        "roughnessFactor": 0.3392857015132904
      },
      "emissiveFactor": [
        0,
        0,
        0
      ],
      "alphaMode": "OPAQUE"
    },
    {
      "doubleSided": true,
      "name": "tomato skin",
      "pbrMetallicRoughness": {
        "baseColorFactor": [
          0.43854451179504395,
          0.01649928092956543,
          0.01649928092956543,
          1
        ],
        "metallicFactor": 0,
        "roughnessFactor": 0.21666666865348816
      },
      "emissiveFactor": [
        0,
        0,
        0
      ],
      "alphaMode": "OPAQUE"
    },
    {
      "doubleSided": true,
      "name": "tutup gelas",
      "pbrMetallicRoughness": {
        "baseColorFactor": [
          0.018848750740289688,
          0.006362828891724348,
          0.005073324777185917,
          1
        ],
        "metallicFactor": 0,
        "roughnessFactor": 0.2261904776096344
      },
      "emissiveFactor": [
        0,
        0,
        0
      ],
      "alphaMode": "OPAQUE"
    }
  ],
  "meshes": [
    {
      "name": "Cube.036",
      "primitives": [
        {
          "attributes": {
            "POSITION": 0,
            "NORMAL": 1,
            "TEXCOORD_0": 2
          },
          "indices": 3,
          "material": 0,
          "mode": 4
        },
        {
          "attributes": {
            "POSITION": 4,
            "NORMAL": 5,
            "TEXCOORD_0": 6
          },
          "indices": 7,
          "material": 1,
          "mode": 4
        },
        {
          "attributes": {
            "POSITION": 8,
            "NORMAL": 9,
            "TEXCOORD_0": 10
          },
          "indices": 11,
          "material": 2,
          "mode": 4
        },
        {
          "attributes": {
            "POSITION": 12,
            "NORMAL": 13,
            "TEXCOORD_0": 14
          },
          "indices": 15,
          "material": 3,
          "mode": 4
        },
        {
          "attributes": {
            "POSITION": 16,
            "NORMAL": 17,
            "TEXCOORD_0": 18
          },
          "indices": 19,
          "material": 3,
          "mode": 4
        }
      ]
    }
  ],
  "accessors": [
    {
      "bufferView": 0,
      "componentType": 5126,
      "count": 15208,
      "max": [
        0.9356672763824463,
        3.6177279949188232,
        1.0391048192977905
      ],
      "min": [
        -1.6256506443023682,
        -0.019944675266742706,
        -1.0391312837600708
      ],
      "type": "VEC3",
      "byteOffset": 0
    },
    {
      "bufferView": 1,
      "componentType": 5126,
      "count": 15208,
      "type": "VEC3",
      "byteOffset": 0
    },
    {
      "bufferView": 2,
      "componentType": 5126,
      "count": 15208,
      "type": "VEC2",
      "byteOffset": 0
    },
    {
      "bufferView": 3,
      "componentType": 5123,
      "count": 81984,
      "type": "SCALAR",
      "byteOffset": 0
    },
    {
      "bufferView": 4,
      "componentType": 5126,
      "count": 15009,
      "max": [
        0.5590766072273254,
        3.006824016571045,
        1.0693072080612183
      ],
      "min": [
        -1.615445852279663,
        -1.8463233709335327,
        -1.0287253856658936
      ],
      "type": "VEC3",
      "byteOffset": 0
    },
    {
      "bufferView": 5,
      "componentType": 5126,
      "count": 15009,
      "type": "VEC3",
      "byteOffset": 0
    },
    {
      "bufferView": 6,
      "componentType": 5126,
      "count": 15009,
      "type": "VEC2",
      "byteOffset": 0
    },
    {
      "bufferView": 7,
      "componentType": 5123,
      "count": 81984,
      "type": "SCALAR",
      "byteOffset": 0
    },
    {
      "bufferView": 8,
      "componentType": 5126,
      "count": 2598,
      "max": [
        0.3376457691192627,
        3.2444350719451904,
        0.681753933429718
      ],
      "min": [
        -1.2540370225906372,
        2.243365526199341,
        -0.5182796716690063
      ],
      "type": "VEC3",
      "byteOffset": 0
    },
    {
      "bufferView": 9,
      "componentType": 5126,
      "count": 2598,
      "type": "VEC3",
      "byteOffset": 0
    },
    {
      "bufferView": 10,
      "componentType": 5126,
      "count": 2598,
      "type": "VEC2",
      "byteOffset": 0
    },
    {
      "bufferView": 11,
      "componentType": 5123,
      "count": 13824,
      "type": "SCALAR",
      "byteOffset": 0
    },
    {
      "bufferView": 12,
      "componentType": 5126,
      "count": 6822,
      "max": [
        0.36868545413017273,
        3.3090436458587646,
        0.24280443787574768
      ],
      "min": [
        -0.8117479681968689,
        2.498438835144043,
        -0.4375638961791992
      ],
      "type": "VEC3",
      "byteOffset": 0
    },
    {
      "bufferView": 13,
      "componentType": 5126,
      "count": 6822,
      "type": "VEC3",
      "byteOffset": 0
    },
    {
      "bufferView": 14,
      "componentType": 5126,
      "count": 6822,
      "type": "VEC2",
      "byteOffset": 0
    },
    {
      "bufferView": 15,
      "componentType": 5123,
      "count": 36864,
      "type": "SCALAR",
      "byteOffset": 0
    },
    {
      "bufferView": 16,
      "componentType": 5126,
      "count": 2926,
      "max": [
        0.3579099178314209,
        3.4199798107147217,
        -0.09771811962127686
      ],
      "min": [
        -0.024744033813476562,
        2.75288987159729,
        -0.42866814136505127
      ],
      "type": "VEC3",
      "byteOffset": 0
    },
    {
      "bufferView": 17,
      "componentType": 5126,
      "count": 2926,
      "type": "VEC3",
      "byteOffset": 0
    },
    {
      "bufferView": 18,
      "componentType": 5126,
      "count": 2926,
      "type": "VEC2",
      "byteOffset": 0
    },
    {
      "bufferView": 19,
      "componentType": 5123,
      "count": 15360,
      "type": "SCALAR",
      "byteOffset": 0
    }
  ],
  "bufferViews": [
    {
      "buffer": 0,
      "byteLength": 182496,
      "byteOffset": 0,
      "byteStride": 12,
      "target": 34962
    },
    {
      "buffer": 0,
      "byteLength": 182496,
      "byteOffset": 182496,
      "byteStride": 12,
      "target": 34962
    },
    {
      "buffer": 0,
      "byteLength": 121664,
      "byteOffset": 364992,
      "byteStride": 8,
      "target": 34962
    },
    {
      "buffer": 0,
      "byteLength": 163968,
      "byteOffset": 486656,
      "target": 34963
    },
    {
      "buffer": 0,
      "byteLength": 180108,
      "byteOffset": 650624,
      "byteStride": 12,
      "target": 34962
    },
    {
      "buffer": 0,
      "byteLength": 180108,
      "byteOffset": 830736,
      "byteStride": 12,
      "target": 34962
    },
    {
      "buffer": 0,
      "byteLength": 120072,
      "byteOffset": 1010848,
      "byteStride": 8,
      "target": 34962
    },
    {
      "buffer": 0,
      "byteLength": 163968,
      "byteOffset": 1130920,
      "target": 34963
    },
    {
      "buffer": 0,
      "byteLength": 31176,
      "byteOffset": 1294888,
      "byteStride": 12,
      "target": 34962
    },
    {
      "buffer": 0,
      "byteLength": 31176,
      "byteOffset": 1326064,
      "byteStride": 12,
      "target": 34962
    },
    {
      "buffer": 0,
      "byteLength": 20784,
      "byteOffset": 1357240,
      "byteStride": 8,
      "target": 34962
    },
    {
      "buffer": 0,
      "byteLength": 27648,
      "byteOffset": 1378024,
      "target": 34963
    },
    {
      "buffer": 0,
      "byteLength": 81864,
      "byteOffset": 1405672,
      "byteStride": 12,
      "target": 34962
    },
    {
      "buffer": 0,
      "byteLength": 81864,
      "byteOffset": 1487536,
      "byteStride": 12,
      "target": 34962
    },
    {
      "buffer": 0,
      "byteLength": 54576,
      "byteOffset": 1569400,
      "byteStride": 8,
      "target": 34962
    },
    {
      "buffer": 0,
      "byteLength": 73728,
      "byteOffset": 1623976,
      "target": 34963
    },
    {
      "buffer": 0,
      "byteLength": 35112,
      "byteOffset": 1697704,
      "byteStride": 12,
      "target": 34962
    },
    {
      "buffer": 0,
      "byteLength": 35112,
      "byteOffset": 1732816,
      "byteStride": 12,
      "target": 34962
    },
    {
      "buffer": 0,
      "byteLength": 23408,
      "byteOffset": 1767928,
      "byteStride": 8,
      "target": 34962
    },
    {
      "buffer": 0,
      "byteLength": 30720,
      "byteOffset": 1791336,
      "target": 34963
    }
  ],
  "buffers": [
    {
      "name": "pizzaslice",
      "byteLength": 1822056,
      "uri": "data:application/octet-stream;base64,"
    }
  ]
}
