{
  "asset": {
    "generator": "Khronos glTF Blender I/O v1.7.33",
    "version": "2.0"
  },
  "scene": 0,
  "scenes": [
    {
      "name": "Scene",
      "nodes": [
        0,
        1
      ]
    }
  ],
  "nodes": [
    {
      "mesh": 0,
      "name": "Cube.038",
      "rotation": [
        -0.26308900117874146,
        0.24220983684062958,
        -0.08180712908506393,
        0.9302829504013062
      ],
      "scale": [
        1.6397120952606201,
        0.42334577441215515,
        0.42334574460983276
      ],
      "translation": [
        -1.7154877185821533,
        -3.9543304443359375,
        0
      ]
    },
    {
      "mesh": 1,
      "name": "Cube.011",
      "rotation": [
        -0.2494952380657196,
        0.48790812492370605,
        -0.196105495095253,
        0.8131669163703918
      ],
      "scale": [
        1.6397120952606201,
        0.42334577441215515,
        0.42334574460983276
      ],
      "translation": [
        1.5178085565567017,
        2.3967933654785156,
        -0.639813244342804
      ]
    }
  ],
  "materials": [
    {
      "doubleSided": true,
      "name": "bun",
      "pbrMetallicRoughness": {
        "baseColorFactor": [
          1,
          0.24258992075920105,
          0.08431372046470642,
          1
        ],
        "metallicFactor": 0,
        "roughnessFactor": 0.30000001192092896
      },
      "emissiveFactor": [
        0,
        0,
        0
      ],
      "alphaMode": "OPAQUE"
    },
    {
      "doubleSided": true,
      "name": "chocolate",
      "pbrMetallicRoughness": {
        "baseColorFactor": [
          0.21096239984035492,
          0.051820870488882065,
          0.00669314106926322,
          1
        ],
        "metallicFactor": 0,
        "roughnessFactor": 0.1369047611951828
      },
      "emissiveFactor": [
        0,
        0,
        0
      ],
      "alphaMode": "OPAQUE"
    },
    {
      "doubleSided": true,
      "name": "glow white",
      "pbrMetallicRoughness": {
        "baseColorFactor": [
          0.6038163900375366,
          0.6038163900375366,
          0.6038163900375366,
          1
        ],
        "metallicFactor": 0,
        "roughnessFactor": 0
      },
      "emissiveFactor": [
        0,
        0,
        0
      ],
      "alphaMode": "OPAQUE"
    }
  ],
  "meshes": [
    {
      "name": "Cube.052",
      "primitives": [
        {
          "attributes": {
            "POSITION": 0,
            "NORMAL": 1,
            "TEXCOORD_0": 2
          },
          "indices": 3,
          "material": 0,
          "mode": 4
        },
        {
          "attributes": {
            "POSITION": 4,
            "NORMAL": 5,
            "TEXCOORD_0": 6
          },
          "indices": 7,
          "material": 1,
          "mode": 4
        },
        {
          "attributes": {
            "POSITION": 8,
            "NORMAL": 9,
            "TEXCOORD_0": 10
          },
          "indices": 11,
          "material": 2,
          "mode": 4
        }
      ]
    },
    {
      "name": "Cube.008",
      "primitives": [
        {
          "attributes": {
            "POSITION": 12,
            "NORMAL": 13,
            "TEXCOORD_0": 14
          },
          "indices": 3,
          "material": 0,
          "mode": 4
        },
        {
          "attributes": {
            "POSITION": 15,
            "NORMAL": 16,
            "TEXCOORD_0": 17
          },
          "indices": 7,
          "material": 1,
          "mode": 4
        },
        {
          "attributes": {
            "POSITION": 18,
            "NORMAL": 19,
            "TEXCOORD_0": 20
          },
          "indices": 21,
          "material": 2,
          "mode": 4
        }
      ]
    }
  ],
  "accessors": [
    {
      "bufferView": 0,
      "componentType": 5126,
      "count": 4948,
      "max": [
        2.0353591442108154,
        9.9248046875,
        4.416540145874023
      ],
      "min": [
        -2.035355567932129,
        -1.554207682609558,
        -1.8918946981430054
      ],
      "type": "VEC3",
      "byteOffset": 0
    },
    {
      "bufferView": 1,
      "componentType": 5126,
      "count": 4948,
      "type": "VEC3",
      "byteOffset": 0
    },
    {
      "bufferView": 2,
      "componentType": 5126,
      "count": 4948,
      "type": "VEC2",
      "byteOffset": 0
    },
    {
      "bufferView": 3,
      "componentType": 5123,
      "count": 26880,
      "type": "SCALAR",
      "byteOffset": 0
    },
    {
      "bufferView": 4,
      "componentType": 5126,
      "count": 7483,
      "max": [
        2.00875186920166,
        9.839219093322754,
        4.5835676193237305
      ],
      "min": [
        -2.009430170059204,
        -1.5066784620285034,
        -0.5097655653953552
      ],
      "type": "VEC3",
      "byteOffset": 0
    },
    {
      "bufferView": 5,
      "componentType": 5126,
      "count": 7483,
      "type": "VEC3",
      "byteOffset": 0
    },
    {
      "bufferView": 6,
      "componentType": 5126,
      "count": 7483,
      "type": "VEC2",
      "byteOffset": 0
    },
    {
      "bufferView": 7,
      "componentType": 5123,
      "count": 40704,
      "type": "SCALAR",
      "byteOffset": 0
    },
    {
      "bufferView": 8,
      "componentType": 5126,
      "count": 29184,
      "max": [
        1.8328323364257812,
        9.427685737609863,
        4.433801174163818
      ],
      "min": [
        -1.9215387105941772,
        -0.7930160760879517,
        0.7313238978385925
      ],
      "type": "VEC3",
      "byteOffset": 0
    },
    {
      "bufferView": 9,
      "componentType": 5126,
      "count": 29184,
      "type": "VEC3",
      "byteOffset": 0
    },
    {
      "bufferView": 10,
      "componentType": 5126,
      "count": 29184,
      "type": "VEC2",
      "byteOffset": 0
    },
    {
      "bufferView": 11,
      "componentType": 5123,
      "count": 43776,
      "type": "SCALAR",
      "byteOffset": 0
    },
    {
      "bufferView": 12,
      "componentType": 5126,
      "count": 4948,
      "max": [
        1.0353690385818481,
        6.147663593292236,
        6.590151309967041
      ],
      "min": [
        -0.567054808139801,
        -5.558239936828613,
        -6.95450496673584
      ],
      "type": "VEC3",
      "byteOffset": 0
    },
    {
      "bufferView": 13,
      "componentType": 5126,
      "count": 4948,
      "type": "VEC3",
      "byteOffset": 0
    },
    {
      "bufferView": 14,
      "componentType": 5126,
      "count": 4948,
      "type": "VEC2",
      "byteOffset": 0
    },
    {
      "bufferView": 15,
      "componentType": 5126,
      "count": 7483,
      "max": [
        0.854347288608551,
        6.0595808029174805,
        6.783779144287109
      ],
      "min": [
        -0.6074895858764648,
        -5.660281658172607,
        -6.703220844268799
      ],
      "type": "VEC3",
      "byteOffset": 0
    },
    {
      "bufferView": 16,
      "componentType": 5126,
      "count": 7483,
      "type": "VEC3",
      "byteOffset": 0
    },
    {
      "bufferView": 17,
      "componentType": 5126,
      "count": 7483,
      "type": "VEC2",
      "byteOffset": 0
    },
    {
      "bufferView": 18,
      "componentType": 5126,
      "count": 29184,
      "max": [
        0.5896965265274048,
        5.076419830322266,
        5.689267158508301
      ],
      "min": [
        -0.6442556381225586,
        -4.856982231140137,
        -6.369268894195557
      ],
      "type": "VEC3",
      "byteOffset": 0
    },
    {
      "bufferView": 19,
      "componentType": 5126,
      "count": 29184,
      "type": "VEC3",
      "byteOffset": 0
    },
    {
      "bufferView": 20,
      "componentType": 5126,
      "count": 29184,
      "type": "VEC2",
      "byteOffset": 0
    },
    {
      "bufferView": 21,
      "componentType": 5123,
      "count": 43776,
      "type": "SCALAR",
      "byteOffset": 0
    }
  ],
  "bufferViews": [
    {
      "buffer": 0,
      "byteLength": 59376,
      "byteOffset": 0,
      "byteStride": 12,
      "target": 34962
    },
    {
      "buffer": 0,
      "byteLength": 59376,
      "byteOffset": 59376,
      "byteStride": 12,
      "target": 34962
    },
    {
      "buffer": 0,
      "byteLength": 39584,
      "byteOffset": 118752,
      "byteStride": 8,
      "target": 34962
    },
    {
      "buffer": 0,
      "byteLength": 53760,
      "byteOffset": 158336,
      "target": 34963
    },
    {
      "buffer": 0,
      "byteLength": 89796,
      "byteOffset": 212096,
      "byteStride": 12,
      "target": 34962
    },
    {
      "buffer": 0,
      "byteLength": 89796,
      "byteOffset": 301896,
      "byteStride": 12,
      "target": 34962
    },
    {
      "buffer": 0,
      "byteLength": 59864,
      "byteOffset": 391696,
      "byteStride": 8,
      "target": 34962
    },
    {
      "buffer": 0,
      "byteLength": 81408,
      "byteOffset": 451560,
      "target": 34963
    },
    {
      "buffer": 0,
      "byteLength": 350208,
      "byteOffset": 532968,
      "byteStride": 12,
      "target": 34962
    },
    {
      "buffer": 0,
      "byteLength": 350208,
      "byteOffset": 883176,
      "byteStride": 12,
      "target": 34962
    },
    {
      "buffer": 0,
      "byteLength": 233472,
      "byteOffset": 1233384,
      "byteStride": 8,
      "target": 34962
    },
    {
      "buffer": 0,
      "byteLength": 87552,
      "byteOffset": 1466856,
      "target": 34963
    },
    {
      "buffer": 0,
      "byteLength": 59376,
      "byteOffset": 1554408,
      "byteStride": 12,
      "target": 34962
    },
    {
      "buffer": 0,
      "byteLength": 59376,
      "byteOffset": 1613784,
      "byteStride": 12,
      "target": 34962
    },
    {
      "buffer": 0,
      "byteLength": 39584,
      "byteOffset": 1673160,
      "byteStride": 8,
      "target": 34962
    },
    {
      "buffer": 0,
      "byteLength": 89796,
      "byteOffset": 1712744,
      "byteStride": 12,
      "target": 34962
    },
    {
      "buffer": 0,
      "byteLength": 89796,
      "byteOffset": 1802544,
      "byteStride": 12,
      "target": 34962
    },
    {
      "buffer": 0,
      "byteLength": 59864,
      "byteOffset": 1892344,
      "byteStride": 8,
      "target": 34962
    },
    {
      "buffer": 0,
      "byteLength": 350208,
      "byteOffset": 1952208,
      "byteStride": 12,
      "target": 34962
    },
    {
      "buffer": 0,
      "byteLength": 350208,
      "byteOffset": 2302416,
      "byteStride": 12,
      "target": 34962
    },
    {
      "buffer": 0,
      "byteLength": 233472,
      "byteOffset": 2652624,
      "byteStride": 8,
      "target": 34962
    },
    {
      "buffer": 0,
      "byteLength": 87552,
      "byteOffset": 2886096,
      "target": 34963
    }
  ],
  "buffers": [
    {
      "name": "pretzel",
      "byteLength": 2973648,
      "uri": "data:application/octet-stream;base64,"
    }
  ]
}
