{
    "asset" : {
        "generator" : "Khronos glTF Blender I/O v1.7.33",
        "version" : "2.0"
    },
    "scene" : 0,
    "scenes" : [
        {
            "name" : "Scene",
            "nodes" : [
                0
            ]
        }
    ],
    "nodes" : [
        {
            "mesh" : 0,
            "name" : "table",
            "rotation" : [
                0.7071068286895752,
                0,
                0,
                0.7071067094802856
            ],
            "scale" : [
                1.5065094232559204,
                1,
                1
            ],
            "translation" : [
                0,
                0.1217389702796936,
                0.2323877513408661
            ]
        }
    ],
    "materials" : [
        {
            "doubleSided" : true,
            "name" : "Material.001",
            "pbrMetallicRoughness" : {
                "baseColorFactor" : [
                    0.07142865657806396,
                    0.021040065214037895,
                    0,
                    1
                ],
                "metallicFactor" : 0,
                "roughnessFactor" : 0.5
            }
        }
    ],
    "meshes" : [
        {
            "name" : "table",
            "primitives" : [
                {
                    "attributes" : {
                        "POSITION" : 0,
                        "NORMAL" : 1,
                        "TEXCOORD_0" : 2
                    },
                    "indices" : 3,
                    "material" : 0
                }
            ]
        }
    ],
    "accessors" : [
        {
            "bufferView" : 0,
            "componentType" : 5126,
            "count" : 291,
            "max" : [
                1.9370299577713013,
                1.485276222229004,
                0.9236761927604675
            ],
            "min" : [
                -1.9370299577713013,
                -1.4849474430084229,
                -0.9236758351325989
            ],
            "type" : "VEC3"
        },
        {
            "bufferView" : 1,
            "componentType" : 5126,
            "count" : 291,
            "type" : "VEC3"
        },
        {
            "bufferView" : 2,
            "componentType" : 5126,
            "count" : 291,
            "type" : "VEC2"
        },
        {
            "bufferView" : 3,
            "componentType" : 5123,
            "count" : 672,
            "type" : "SCALAR"
        }
    ],
    "bufferViews" : [
        {
            "buffer" : 0,
            "byteLength" : 3492,
            "byteOffset" : 0
        },
        {
            "buffer" : 0,
            "byteLength" : 3492,
            "byteOffset" : 3492
        },
        {
            "buffer" : 0,
            "byteLength" : 2328,
            "byteOffset" : 6984
        },
        {
            "buffer" : 0,
            "byteLength" : 1344,
            "byteOffset" : 9312
        }
    ],
    "buffers" : [
        {
            "byteLength" : 10656,
            "uri" : "data:application/octet-stream;base64,"
        }
    ]
}
